<svg width="200" height="200" viewBox="0 0 200 200" xmlns="http://www.w3.org/2000/svg">
  <!-- 背景圆形 -->
  <circle cx="100" cy="100" r="90" fill="#4a6bdf" />
  
  <!-- 大脑/电路图案 -->
  <g fill="none" stroke="white" stroke-width="3" stroke-linecap="round">
    <path d="M80,60 C90,50 110,50 120,60" />
    <path d="M70,80 C85,65 115,65 130,80" />
    <path d="M65,100 C85,80 115,80 135,100" />
    
    <!-- 连接点 -->
    <circle cx="80" cy="60" r="3" fill="white" stroke="none" />
    <circle cx="120" cy="60" r="3" fill="white" stroke="none" />
    <circle cx="70" cy="80" r="3" fill="white" stroke="none" />
    <circle cx="130" cy="80" r="3" fill="white" stroke="none" />
    <circle cx="65" cy="100" r="3" fill="white" stroke="none" />
    <circle cx="135" cy="100" r="3" fill="white" stroke="none" />
  </g>
  
  <!-- 任务列表 -->
  <g transform="translate(60,85)">
    <rect x="0" y="0" width="80" height="70" rx="5" fill="white" />
    
    <!-- 任务项目 -->
    <g fill="#4a6bdf">
      <!-- 任务1 - 已完成 -->
      <rect x="10" y="15" width="15" height="15" rx="2" stroke="#4a6bdf" stroke-width="2" fill="white" />
      <path d="M13,22 L18,27 L27,17" stroke="#4a6bdf" stroke-width="2" fill="none" />
      <rect x="35" y="15" width="35" height="4" rx="2" />
      <rect x="35" y="25" width="20" height="4" rx="2" />
      
      <!-- 任务2 - 未完成 -->
      <rect x="10" y="40" width="15" height="15" rx="2" stroke="#4a6bdf" stroke-width="2" fill="white" />
      <rect x="35" y="40" width="35" height="4" rx="2" />
      <rect x="35" y="50" width="25" height="4" rx="2" />
    </g>
  </g>
</svg>